<svg width="53" height="58" viewBox="0 0 53 58" fill="none" xmlns="http://www.w3.org/2000/svg">
<g clip-path="url(#clip0_4_2629)">
<mask id="path-1-inside-1_4_2629" fill="white">
<path d="M77.5535 56.4625H72.5609V30.5777H72.7514C72.9679 30.5777 73.1755 30.4889 73.3286 30.3309C73.4816 30.1729 73.5676 29.9585 73.5676 29.735C73.5677 29.52 73.4869 29.3134 73.3422 29.1588C73.1976 29.0042 73.0003 28.9137 72.7922 28.9064C72.8683 28.4415 72.8683 27.9667 72.7922 27.5019C72.7264 27.0396 72.5723 26.5954 72.3388 26.1951C72.1052 25.7949 71.7969 25.4466 71.4318 25.1704L68.6567 22.9654V21.8839C68.6567 21.6604 68.5707 21.4461 68.4176 21.288C68.2645 21.13 68.0569 21.0412 67.8404 21.0412C67.624 21.0412 67.4164 21.13 67.2633 21.288C67.1102 21.4461 67.0242 21.6604 67.0242 21.8839V22.9794L64.3851 25.1283C64.0173 25.4016 63.707 25.7491 63.4732 26.1499C63.2393 26.5507 63.0868 26.9963 63.0247 27.4597C62.9397 27.9238 62.9397 28.4002 63.0247 28.8642H62.8343C62.6178 28.8642 62.4102 28.953 62.2571 29.1111C62.104 29.2691 62.018 29.4834 62.018 29.7069C62.018 29.9304 62.104 30.1448 62.2571 30.3028C62.4102 30.4608 62.6178 30.5496 62.8343 30.5496H63.2696V34.9035H51.584V30.5496H51.788C52.0045 30.5496 52.2121 30.4608 52.3652 30.3028C52.5183 30.1448 52.6043 29.9304 52.6043 29.7069C52.6009 29.4907 52.5171 29.284 52.3702 29.1297C52.2233 28.9755 52.0246 28.8855 51.8152 28.8783C51.8913 28.4134 51.8913 27.9387 51.8152 27.4738C51.678 26.5416 51.1889 25.7033 50.4549 25.1423L47.6797 22.9654V21.8839C47.6797 21.6604 47.5937 21.4461 47.4406 21.288C47.2876 21.13 47.08 21.0412 46.8635 21.0412C46.647 21.0412 46.4394 21.13 46.2863 21.288C46.1333 21.4461 46.0473 21.6604 46.0473 21.8839V22.9794L43.4081 25.1283C43.0403 25.4016 42.73 25.7491 42.4962 26.1499C42.2624 26.5507 42.1098 26.9963 42.0478 27.4597C41.9627 27.9238 41.9627 28.4002 42.0478 28.8642H41.8437C41.6272 28.8642 41.4196 28.953 41.2665 29.1111C41.1135 29.2691 41.0275 29.4834 41.0275 29.7069C41.0275 29.9304 41.1135 30.1448 41.2665 30.3028C41.4196 30.4608 41.6272 30.5496 41.8437 30.5496H42.279V31.8558H41.9933L38.4292 29.2996C38.4292 29.2996 38.4292 29.2996 38.4292 29.2013V27.1367C38.4376 26.4634 38.2114 25.8094 37.7919 25.2938C37.3724 24.7783 36.7875 24.4354 36.1437 24.3277C36.1641 24.2353 36.1641 24.1393 36.1437 24.0468V19.9598C36.3522 19.9486 36.5478 19.8527 36.6879 19.6929C37.3376 18.935 37.8182 18.039 38.0956 17.0682C38.373 16.0974 38.4404 15.0756 38.2931 14.075C38.1613 13.1872 37.8657 12.3337 37.4225 11.5609C37.4225 11.5609 37.4225 11.4766 37.4225 11.4345V8.62553C37.4243 8.51434 37.4045 8.40391 37.3641 8.30081C37.3237 8.19771 37.2637 8.10406 37.1875 8.02542C37.1114 7.94679 37.0206 7.88479 36.9208 7.84311C36.8209 7.80143 36.714 7.78094 36.6063 7.78284C36.3898 7.78284 36.1822 7.87162 36.0291 8.02965C35.876 8.18769 35.79 8.40203 35.79 8.62553V9.70699C35.5894 9.5413 35.3806 9.3866 35.1643 9.24351L29.1242 5.18453V1.67331C29.1206 0.97173 28.8481 0.300152 28.3664 -0.194628C27.8846 -0.689407 27.2327 -0.967146 26.5531 -0.967136H26.281C25.9422 -0.970842 25.6061 -0.905383 25.2919 -0.774521C24.9777 -0.643659 24.6916 -0.449977 24.4502 -0.204604C24.2087 0.0407695 24.0166 0.332994 23.8849 0.65527C23.7532 0.977547 23.6845 1.32352 23.6827 1.67331V5.18453L17.425 9.17328C17.2073 9.32778 16.9897 9.48227 16.7856 9.65081V8.5553C16.7856 8.33181 16.6996 8.11747 16.5466 7.95943C16.3935 7.8014 16.1859 7.71261 15.9694 7.71261C15.7529 7.71261 15.5453 7.8014 15.3922 7.95943C15.2392 8.11747 15.1532 8.33181 15.1532 8.5553V11.3643C15.1468 11.4062 15.1468 11.4488 15.1532 11.4907C14.7055 12.2614 14.4096 13.1157 14.2825 14.0047C14.1353 15.0054 14.2027 16.0272 14.4801 16.998C14.7575 17.9688 15.238 18.8648 15.8878 19.6227C16.0278 19.7824 16.2235 19.8784 16.4319 19.8895V24.0047C16.4115 24.0971 16.4115 24.1931 16.4319 24.2856C15.7906 24.3963 15.2089 24.7404 14.7922 25.2557C14.3754 25.771 14.1512 26.4233 14.1601 27.0946V29.1873C14.1601 29.1873 14.1601 29.1873 14.1601 29.2856L10.5959 31.8418H10.3102V30.5356H10.5143C10.7308 30.5356 10.9384 30.4468 11.0915 30.2888C11.2445 30.1307 11.3305 29.9164 11.3305 29.6929C11.3271 29.4766 11.2433 29.2699 11.0965 29.1157C10.9496 28.9614 10.7509 28.8714 10.5415 28.8642C10.6246 28.4 10.6246 27.924 10.5415 27.4597C10.4043 26.5275 9.91521 25.6893 9.18113 25.1283L6.5148 22.9654V21.8839C6.5148 21.6604 6.42881 21.4461 6.27573 21.288C6.12266 21.13 5.91505 21.0412 5.69857 21.0412C5.4821 21.0412 5.27449 21.13 5.12142 21.288C4.96834 21.4461 4.88235 21.6604 4.88235 21.8839V22.9794L2.24323 25.1283C1.87759 25.4039 1.56892 25.752 1.33532 26.1524C1.10172 26.5527 0.947893 26.9972 0.882851 27.4597C0.797823 27.9238 0.797823 28.4002 0.882851 28.8642H0.678795C0.462318 28.8642 0.254707 28.953 0.101637 29.1111C-0.0514355 29.2691 -0.13743 29.4834 -0.13743 29.7069C-0.13743 29.9304 -0.0514355 30.1448 0.101637 30.3028C0.254707 30.4608 0.462318 30.5496 0.678795 30.5496H1.11411V34.9035H-10.5579V30.5496H-10.245C-10.0285 30.5496 -9.82092 30.4608 -9.66785 30.3028C-9.51478 30.1448 -9.42878 29.9304 -9.42878 29.7069C-9.42878 29.4834 -9.51478 29.2691 -9.66785 29.1111C-9.82092 28.953 -10.0285 28.8642 -10.245 28.8642H-10.3266C-10.2416 28.4002 -10.2416 27.9238 -10.3266 27.4597C-10.3917 26.9972 -10.5455 26.5527 -10.7791 26.1524C-11.0127 25.752 -11.3214 25.4039 -11.687 25.1283L-14.4078 22.9654V21.8839C-14.4078 21.6604 -14.4937 21.4461 -14.6468 21.288C-14.7999 21.13 -15.0075 21.0412 -15.224 21.0412C-15.4405 21.0412 -15.6481 21.13 -15.8011 21.288C-15.9542 21.4461 -16.0402 21.6604 -16.0402 21.8839V22.9794L-18.6929 25.1283C-19.427 25.6893 -19.9161 26.5275 -20.0533 27.4597C-20.1318 27.9244 -20.1318 28.3996 -20.0533 28.8642H-20.1349C-20.3514 28.8642 -20.559 28.953 -20.7121 29.1111C-20.8652 29.2691 -20.9511 29.4834 -20.9511 29.7069C-20.9511 29.9304 -20.8652 30.1448 -20.7121 30.3028C-20.559 30.4608 -20.3514 30.5496 -20.1349 30.5496H-19.822V56.4625H-24.7466C-24.8617 56.447 -24.9787 56.4571 -25.0897 56.492C-25.2007 56.527 -25.3032 56.5859 -25.3904 56.665C-25.4776 56.7441 -25.5475 56.8415 -25.5954 56.9507C-25.6432 57.0598 -25.668 57.1783 -25.668 57.2981C-25.668 57.418 -25.6432 57.5364 -25.5954 57.6456C-25.5475 57.7548 -25.4776 57.8521 -25.3904 57.9312C-25.3032 58.0103 -25.2007 58.0693 -25.0897 58.1042C-24.9787 58.1392 -24.8617 58.1492 -24.7466 58.1338H77.5535C77.6686 58.1492 77.7856 58.1392 77.8966 58.1042C78.0076 58.0693 78.1102 58.0103 78.1974 57.9312C78.2846 57.8521 78.3544 57.7548 78.4023 57.6456C78.4501 57.5364 78.4749 57.418 78.4749 57.2981C78.4749 57.1783 78.4501 57.0598 78.4023 56.9507C78.3544 56.8415 78.2846 56.7441 78.1974 56.665C78.1102 56.5859 78.0076 56.527 77.8966 56.492C77.7856 56.4571 77.6686 56.447 77.5535 56.4625ZM-3.87846 53.3024V51.1956C-3.87846 50.9721 -3.96445 50.7578 -4.11752 50.5998C-4.2706 50.4417 -4.47821 50.3529 -4.69468 50.3529C-4.91116 50.3529 -5.11877 50.4417 -5.27184 50.5998C-5.42491 50.7578 -5.5109 50.9721 -5.5109 51.1956V53.3024H-10.5579V47.6844H1.22294V53.3024H-3.87846ZM-14.3397 53.3024V51.1956C-14.3397 50.9721 -14.4257 50.7578 -14.5788 50.5998C-14.7319 50.4417 -14.9395 50.3529 -15.156 50.3529C-15.3724 50.3529 -15.58 50.4417 -15.7331 50.5998C-15.8862 50.7578 -15.9722 50.9721 -15.9722 51.1956V53.3024H-18.1216V47.6844H-12.1903V53.3024H-14.3397ZM10.9632 33.6395H23.8732C23.8524 33.8308 23.8524 34.024 23.8732 34.2153V35.0019H9.19473V33.6395H10.9632ZM43.6122 33.6395V35.044H29.0154V34.2575C29.0093 34.063 28.9819 33.8698 28.9338 33.6816H43.6258L43.6122 33.6395ZM67.9493 50.4934C67.7328 50.4934 67.5252 50.5822 67.3721 50.7402C67.219 50.8982 67.1331 51.1126 67.1331 51.3361V53.3024H64.9973V47.6844H70.9285V53.3024H68.7791V51.1956C68.7791 50.9721 68.6931 50.7578 68.54 50.5998C68.387 50.4417 68.1794 50.3529 67.9629 50.3529L67.9493 50.4934ZM58.3178 53.3024V51.1956C58.3178 50.9721 58.2318 50.7578 58.0788 50.5998C57.9257 50.4417 57.7181 50.3529 57.5016 50.3529C57.2851 50.3529 57.0775 50.4417 56.9245 50.5998C56.7714 50.7578 56.6854 50.9721 56.6854 51.1956V53.3024H51.584V47.6844H63.3648V53.3024H58.3178ZM46.8091 53.3024H44.0883V47.6844H50.0196V53.3024H46.8091ZM18.9894 36.617V38.9906H13.4255V36.617H18.9894ZM21.9958 36.617V39.8193V44.0327V50.2125H20.6355V36.617H21.9958ZM24.6214 36.617H29.1922V38.9906H23.6827V36.617H24.6214ZM32.1987 36.617V50.2125H30.8383V36.617H32.1987ZM39.395 36.617V38.9906H33.8311V36.617H39.395ZM42.3879 36.617V50.2125H41.0275V36.617H42.3879ZM10.4191 51.8979H42.3879V53.3024H10.4191V51.8979ZM18.9894 43.2041H13.4255V40.6619H18.9894V43.2041ZM13.4255 44.8754H18.9894V50.2125H13.4255V44.8754ZM29.1922 43.19H23.6827V40.6619H29.2466L29.1922 43.19ZM23.6827 44.8754H29.2466V50.2125H23.6827V44.8754ZM39.4494 43.19H33.8311V40.6619H39.395L39.4494 43.19ZM33.8311 44.8754H39.395V50.2125H33.8311V44.8754ZM11.793 50.2125H10.4327V36.617H11.793V50.2125ZM64.9973 30.6198H70.9285V39.0468H64.9973V30.6198ZM70.9285 40.6619V46.0973H64.9973V40.6619H70.9285ZM63.3648 46.0973H51.584V40.6619H63.3648V46.0973ZM49.9515 46.0973H44.0883V40.6619H50.0196L49.9515 46.0973ZM27.3829 34.1451V34.9316H25.4376V34.1451C25.5641 33.4695 25.898 32.8539 26.3899 32.3895C26.8945 32.8497 27.2426 33.4652 27.3829 34.1451ZM8.78662 46.1114H2.85539V40.6619H8.78662V46.1114ZM1.22294 46.1114H-10.5579V40.6619H1.22294V46.1114ZM-18.1216 40.6619H-12.1903V46.0973H-18.1216V40.6619ZM-18.1216 30.6058H-12.1903V39.0327H-18.1216V30.6058ZM2.85539 47.7968H8.78662V53.4147H2.85539V47.7968ZM47.7477 55.0158H70.8741V56.4203H47.7477V55.0158ZM64.6844 27.7125C64.7445 27.2241 64.9889 26.7799 65.3646 26.4766L67.8677 24.4541L70.5884 26.4906C70.9581 26.7911 71.1978 27.2304 71.255 27.7125C71.3101 28.1125 71.2583 28.5205 71.1053 28.8923H64.834C64.681 28.5205 64.6293 28.1125 64.6844 27.7125ZM63.324 36.617V38.9906H51.584V36.617H63.324ZM43.7074 27.7125C43.7724 27.2224 44.0216 26.7784 44.4012 26.4766L46.8907 24.4541L49.6114 26.4906C49.9772 26.7926 50.2121 27.232 50.2644 27.7125C50.3238 28.1113 50.2767 28.5191 50.1284 28.8923H43.8707C43.7131 28.5218 43.6566 28.1138 43.7074 27.7125ZM44.0883 30.6198H50.0196V39.0468H44.0883V36.617H44.51C44.7265 36.617 44.9341 36.5282 45.0872 36.3702C45.2403 36.2122 45.3263 35.9978 45.3263 35.7743V32.7266C45.3263 32.5031 45.2403 32.2887 45.0872 32.1307C44.9341 31.9727 44.7265 31.8839 44.51 31.8839H44.0883V30.6198ZM31.2464 21.5328C31.0299 21.5328 30.8223 21.6216 30.6692 21.7796C30.5162 21.9376 30.4302 22.152 30.4302 22.3755V24.3137H27.2197V22.4036C27.2197 22.1801 27.1337 21.9657 26.9806 21.8077C26.8275 21.6497 26.6199 21.5609 26.4035 21.5609C26.187 21.5609 25.9794 21.6497 25.8263 21.8077C25.6732 21.9657 25.5872 22.1801 25.5872 22.4036V24.3418H22.4448V22.4036C22.4448 22.1801 22.3588 21.9657 22.2057 21.8077C22.0526 21.6497 21.845 21.5609 21.6286 21.5609C21.4121 21.5609 21.2045 21.6497 21.0514 21.8077C20.8983 21.9657 20.8123 22.1801 20.8123 22.4036V24.3418H18.0916C18.0981 24.2623 18.0981 24.1825 18.0916 24.103V19.9738H34.7017V24.0749C34.6952 24.1544 34.6952 24.2342 34.7017 24.3137H31.981V22.4036C31.9846 22.2917 31.9666 22.1803 31.9281 22.0757C31.8896 21.9711 31.8312 21.8755 31.7565 21.7945C31.6818 21.7134 31.5922 21.6485 31.4929 21.6036C31.3937 21.5587 31.2867 21.5346 31.1784 21.5328H31.2464ZM28.1992 6.58902L34.5657 10.6059C35.1968 11.0101 35.7352 11.551 36.1439 12.1912C36.5526 12.8314 36.8218 13.5556 36.9328 14.3137C37.0338 15.0121 36.9967 15.7244 36.8237 16.4075C36.6507 17.0907 36.3453 17.7305 35.9261 18.2884H29.1242V16.5328C29.1178 16.1523 29.0441 15.7763 28.9066 15.4233C28.5177 14.4334 27.792 13.6243 26.866 13.148C26.6389 13.0542 26.3856 13.0542 26.1586 13.148C25.2143 13.6049 24.4609 14.3977 24.0364 15.3811C23.882 15.7643 23.7989 16.1741 23.7915 16.589V18.3446H16.8808C16.464 17.7856 16.1611 17.1453 15.9904 16.4622C15.8197 15.779 15.7848 15.0673 15.8878 14.3699C15.9988 13.6118 16.2679 12.8876 16.6766 12.2474C17.0853 11.6072 17.6238 11.0663 18.2548 10.662L24.5534 6.6452L28.1992 6.58902ZM25.4784 16.5328C25.4758 16.341 25.5081 16.1505 25.5736 15.971C25.7537 15.5332 26.057 15.1613 26.4443 14.9036C26.8243 15.1697 27.1256 15.5391 27.3149 15.971C27.3752 16.1519 27.4073 16.3415 27.4101 16.5328V18.2884H25.4376L25.4784 16.5328ZM26.5803 0.71825C26.7023 0.716356 26.8234 0.739766 26.9365 0.787091C27.0495 0.834417 27.1522 0.904694 27.2385 0.99376C27.3248 1.08282 27.3928 1.18886 27.4387 1.30559C27.4845 1.42232 27.5072 1.54736 27.5054 1.67331V4.90363H25.3424V1.67331C25.3405 1.54736 25.3632 1.42232 25.409 1.30559C25.4549 1.18886 25.523 1.08282 25.6092 0.99376C25.6955 0.904694 25.7982 0.834417 25.9113 0.787091C26.0243 0.739766 26.1454 0.716356 26.2674 0.71825H26.5803ZM15.8878 27.1367C15.8878 26.835 16.0039 26.5456 16.2105 26.3323C16.4172 26.1189 16.6974 25.9991 16.9897 25.9991H35.8172C36.1108 25.9991 36.3924 26.1185 36.6013 26.3314C36.8101 26.5444 36.9292 26.8337 36.9328 27.1367V28.3867H15.8878V27.1367ZM16.0918 30.0721H36.7151L39.2318 31.8839H28.1175C27.7546 31.4102 27.3493 30.9728 26.9068 30.5777C26.761 30.4545 26.5783 30.3872 26.3899 30.3872C26.2014 30.3872 26.0188 30.4545 25.8729 30.5777C25.4327 30.9708 25.0316 31.4083 24.6758 31.8839H13.5751L16.0918 30.0721ZM8.37851 31.8839C8.16203 31.8839 7.95443 31.9727 7.80135 32.1307C7.64828 32.2887 7.56229 32.5031 7.56229 32.7266V35.7743C7.56229 35.9978 7.64828 36.2122 7.80135 36.3702C7.95443 36.5282 8.16203 36.617 8.37851 36.617H8.78662V38.9906H2.85539V30.5637H8.78662V31.8277L8.37851 31.8839ZM2.55611 27.6704C2.58293 27.4277 2.65701 27.1931 2.7739 26.9807C2.89079 26.7683 3.04807 26.5825 3.2363 26.4345L5.72578 24.412L8.44653 26.4485C8.81232 26.7505 9.04715 27.1899 9.09951 27.6704C9.16551 28.069 9.11826 28.4788 8.96347 28.8502H2.70575C2.55412 28.4928 2.50229 28.0987 2.55611 27.7125V27.6704ZM1.19574 36.5749V38.9485H-10.5579V36.617L1.19574 36.5749ZM-18.4209 27.7125C-18.394 27.4698 -18.32 27.2352 -18.2031 27.0228C-18.0862 26.8104 -17.9289 26.6246 -17.7407 26.4766L-15.2512 24.4541L-12.5304 26.4906C-12.1646 26.7926 -11.9298 27.232 -11.8775 27.7125C-11.8115 28.1111 -11.8587 28.5209 -12.0135 28.8923H-18.2712C-18.4306 28.5223 -18.4826 28.1125 -18.4209 27.7125ZM-18.108 55.0158H4.88235V56.4203H-18.108V55.0158ZM6.5148 56.4203V55.1001H46.1697V56.4203H6.5148Z"/>
</mask>
<path d="M77.5535 56.4625H72.5609V30.5777H72.7514C72.9679 30.5777 73.1755 30.4889 73.3286 30.3309C73.4816 30.1729 73.5676 29.9585 73.5676 29.735C73.5677 29.52 73.4869 29.3134 73.3422 29.1588C73.1976 29.0042 73.0003 28.9137 72.7922 28.9064C72.8683 28.4415 72.8683 27.9667 72.7922 27.5019C72.7264 27.0396 72.5723 26.5954 72.3388 26.1951C72.1052 25.7949 71.7969 25.4466 71.4318 25.1704L68.6567 22.9654V21.8839C68.6567 21.6604 68.5707 21.4461 68.4176 21.288C68.2645 21.13 68.0569 21.0412 67.8404 21.0412C67.624 21.0412 67.4164 21.13 67.2633 21.288C67.1102 21.4461 67.0242 21.6604 67.0242 21.8839V22.9794L64.3851 25.1283C64.0173 25.4016 63.707 25.7491 63.4732 26.1499C63.2393 26.5507 63.0868 26.9963 63.0247 27.4597C62.9397 27.9238 62.9397 28.4002 63.0247 28.8642H62.8343C62.6178 28.8642 62.4102 28.953 62.2571 29.1111C62.104 29.2691 62.018 29.4834 62.018 29.7069C62.018 29.9304 62.104 30.1448 62.2571 30.3028C62.4102 30.4608 62.6178 30.5496 62.8343 30.5496H63.2696V34.9035H51.584V30.5496H51.788C52.0045 30.5496 52.2121 30.4608 52.3652 30.3028C52.5183 30.1448 52.6043 29.9304 52.6043 29.7069C52.6009 29.4907 52.5171 29.284 52.3702 29.1297C52.2233 28.9755 52.0246 28.8855 51.8152 28.8783C51.8913 28.4134 51.8913 27.9387 51.8152 27.4738C51.678 26.5416 51.1889 25.7033 50.4549 25.1423L47.6797 22.9654V21.8839C47.6797 21.6604 47.5937 21.4461 47.4406 21.288C47.2876 21.13 47.08 21.0412 46.8635 21.0412C46.647 21.0412 46.4394 21.13 46.2863 21.288C46.1333 21.4461 46.0473 21.6604 46.0473 21.8839V22.9794L43.4081 25.1283C43.0403 25.4016 42.73 25.7491 42.4962 26.1499C42.2624 26.5507 42.1098 26.9963 42.0478 27.4597C41.9627 27.9238 41.9627 28.4002 42.0478 28.8642H41.8437C41.6272 28.8642 41.4196 28.953 41.2665 29.1111C41.1135 29.2691 41.0275 29.4834 41.0275 29.7069C41.0275 29.9304 41.1135 30.1448 41.2665 30.3028C41.4196 30.4608 41.6272 30.5496 41.8437 30.5496H42.279V31.8558H41.9933L38.4292 29.2996C38.4292 29.2996 38.4292 29.2996 38.4292 29.2013V27.1367C38.4376 26.4634 38.2114 25.8094 37.7919 25.2938C37.3724 24.7783 36.7875 24.4354 36.1437 24.3277C36.1641 24.2353 36.1641 24.1393 36.1437 24.0468V19.9598C36.3522 19.9486 36.5478 19.8527 36.6879 19.6929C37.3376 18.935 37.8182 18.039 38.0956 17.0682C38.373 16.0974 38.4404 15.0756 38.2931 14.075C38.1613 13.1872 37.8657 12.3337 37.4225 11.5609C37.4225 11.5609 37.4225 11.4766 37.4225 11.4345V8.62553C37.4243 8.51434 37.4045 8.40391 37.3641 8.30081C37.3237 8.19771 37.2637 8.10406 37.1875 8.02542C37.1114 7.94679 37.0206 7.88479 36.9208 7.84311C36.8209 7.80143 36.714 7.78094 36.6063 7.78284C36.3898 7.78284 36.1822 7.87162 36.0291 8.02965C35.876 8.18769 35.79 8.40203 35.79 8.62553V9.70699C35.5894 9.5413 35.3806 9.3866 35.1643 9.24351L29.1242 5.18453V1.67331C29.1206 0.97173 28.8481 0.300152 28.3664 -0.194628C27.8846 -0.689407 27.2327 -0.967146 26.5531 -0.967136H26.281C25.9422 -0.970842 25.6061 -0.905383 25.2919 -0.774521C24.9777 -0.643659 24.6916 -0.449977 24.4502 -0.204604C24.2087 0.0407695 24.0166 0.332994 23.8849 0.65527C23.7532 0.977547 23.6845 1.32352 23.6827 1.67331V5.18453L17.425 9.17328C17.2073 9.32778 16.9897 9.48227 16.7856 9.65081V8.5553C16.7856 8.33181 16.6996 8.11747 16.5466 7.95943C16.3935 7.8014 16.1859 7.71261 15.9694 7.71261C15.7529 7.71261 15.5453 7.8014 15.3922 7.95943C15.2392 8.11747 15.1532 8.33181 15.1532 8.5553V11.3643C15.1468 11.4062 15.1468 11.4488 15.1532 11.4907C14.7055 12.2614 14.4096 13.1157 14.2825 14.0047C14.1353 15.0054 14.2027 16.0272 14.4801 16.998C14.7575 17.9688 15.238 18.8648 15.8878 19.6227C16.0278 19.7824 16.2235 19.8784 16.4319 19.8895V24.0047C16.4115 24.0971 16.4115 24.1931 16.4319 24.2856C15.7906 24.3963 15.2089 24.7404 14.7922 25.2557C14.3754 25.771 14.1512 26.4233 14.1601 27.0946V29.1873C14.1601 29.1873 14.1601 29.1873 14.1601 29.2856L10.5959 31.8418H10.3102V30.5356H10.5143C10.7308 30.5356 10.9384 30.4468 11.0915 30.2888C11.2445 30.1307 11.3305 29.9164 11.3305 29.6929C11.3271 29.4766 11.2433 29.2699 11.0965 29.1157C10.9496 28.9614 10.7509 28.8714 10.5415 28.8642C10.6246 28.4 10.6246 27.924 10.5415 27.4597C10.4043 26.5275 9.91521 25.6893 9.18113 25.1283L6.5148 22.9654V21.8839C6.5148 21.6604 6.42881 21.4461 6.27573 21.288C6.12266 21.13 5.91505 21.0412 5.69857 21.0412C5.4821 21.0412 5.27449 21.13 5.12142 21.288C4.96834 21.4461 4.88235 21.6604 4.88235 21.8839V22.9794L2.24323 25.1283C1.87759 25.4039 1.56892 25.752 1.33532 26.1524C1.10172 26.5527 0.947893 26.9972 0.882851 27.4597C0.797823 27.9238 0.797823 28.4002 0.882851 28.8642H0.678795C0.462318 28.8642 0.254707 28.953 0.101637 29.1111C-0.0514355 29.2691 -0.13743 29.4834 -0.13743 29.7069C-0.13743 29.9304 -0.0514355 30.1448 0.101637 30.3028C0.254707 30.4608 0.462318 30.5496 0.678795 30.5496H1.11411V34.9035H-10.5579V30.5496H-10.245C-10.0285 30.5496 -9.82092 30.4608 -9.66785 30.3028C-9.51478 30.1448 -9.42878 29.9304 -9.42878 29.7069C-9.42878 29.4834 -9.51478 29.2691 -9.66785 29.1111C-9.82092 28.953 -10.0285 28.8642 -10.245 28.8642H-10.3266C-10.2416 28.4002 -10.2416 27.9238 -10.3266 27.4597C-10.3917 26.9972 -10.5455 26.5527 -10.7791 26.1524C-11.0127 25.752 -11.3214 25.4039 -11.687 25.1283L-14.4078 22.9654V21.8839C-14.4078 21.6604 -14.4937 21.4461 -14.6468 21.288C-14.7999 21.13 -15.0075 21.0412 -15.224 21.0412C-15.4405 21.0412 -15.6481 21.13 -15.8011 21.288C-15.9542 21.4461 -16.0402 21.6604 -16.0402 21.8839V22.9794L-18.6929 25.1283C-19.427 25.6893 -19.9161 26.5275 -20.0533 27.4597C-20.1318 27.9244 -20.1318 28.3996 -20.0533 28.8642H-20.1349C-20.3514 28.8642 -20.559 28.953 -20.7121 29.1111C-20.8652 29.2691 -20.9511 29.4834 -20.9511 29.7069C-20.9511 29.9304 -20.8652 30.1448 -20.7121 30.3028C-20.559 30.4608 -20.3514 30.5496 -20.1349 30.5496H-19.822V56.4625H-24.7466C-24.8617 56.447 -24.9787 56.4571 -25.0897 56.492C-25.2007 56.527 -25.3032 56.5859 -25.3904 56.665C-25.4776 56.7441 -25.5475 56.8415 -25.5954 56.9507C-25.6432 57.0598 -25.668 57.1783 -25.668 57.2981C-25.668 57.418 -25.6432 57.5364 -25.5954 57.6456C-25.5475 57.7548 -25.4776 57.8521 -25.3904 57.9312C-25.3032 58.0103 -25.2007 58.0693 -25.0897 58.1042C-24.9787 58.1392 -24.8617 58.1492 -24.7466 58.1338H77.5535C77.6686 58.1492 77.7856 58.1392 77.8966 58.1042C78.0076 58.0693 78.1102 58.0103 78.1974 57.9312C78.2846 57.8521 78.3544 57.7548 78.4023 57.6456C78.4501 57.5364 78.4749 57.418 78.4749 57.2981C78.4749 57.1783 78.4501 57.0598 78.4023 56.9507C78.3544 56.8415 78.2846 56.7441 78.1974 56.665C78.1102 56.5859 78.0076 56.527 77.8966 56.492C77.7856 56.4571 77.6686 56.447 77.5535 56.4625ZM-3.87846 53.3024V51.1956C-3.87846 50.9721 -3.96445 50.7578 -4.11752 50.5998C-4.2706 50.4417 -4.47821 50.3529 -4.69468 50.3529C-4.91116 50.3529 -5.11877 50.4417 -5.27184 50.5998C-5.42491 50.7578 -5.5109 50.9721 -5.5109 51.1956V53.3024H-10.5579V47.6844H1.22294V53.3024H-3.87846ZM-14.3397 53.3024V51.1956C-14.3397 50.9721 -14.4257 50.7578 -14.5788 50.5998C-14.7319 50.4417 -14.9395 50.3529 -15.156 50.3529C-15.3724 50.3529 -15.58 50.4417 -15.7331 50.5998C-15.8862 50.7578 -15.9722 50.9721 -15.9722 51.1956V53.3024H-18.1216V47.6844H-12.1903V53.3024H-14.3397ZM10.9632 33.6395H23.8732C23.8524 33.8308 23.8524 34.024 23.8732 34.2153V35.0019H9.19473V33.6395H10.9632ZM43.6122 33.6395V35.044H29.0154V34.2575C29.0093 34.063 28.9819 33.8698 28.9338 33.6816H43.6258L43.6122 33.6395ZM67.9493 50.4934C67.7328 50.4934 67.5252 50.5822 67.3721 50.7402C67.219 50.8982 67.1331 51.1126 67.1331 51.3361V53.3024H64.9973V47.6844H70.9285V53.3024H68.7791V51.1956C68.7791 50.9721 68.6931 50.7578 68.54 50.5998C68.387 50.4417 68.1794 50.3529 67.9629 50.3529L67.9493 50.4934ZM58.3178 53.3024V51.1956C58.3178 50.9721 58.2318 50.7578 58.0788 50.5998C57.9257 50.4417 57.7181 50.3529 57.5016 50.3529C57.2851 50.3529 57.0775 50.4417 56.9245 50.5998C56.7714 50.7578 56.6854 50.9721 56.6854 51.1956V53.3024H51.584V47.6844H63.3648V53.3024H58.3178ZM46.8091 53.3024H44.0883V47.6844H50.0196V53.3024H46.8091ZM18.9894 36.617V38.9906H13.4255V36.617H18.9894ZM21.9958 36.617V39.8193V44.0327V50.2125H20.6355V36.617H21.9958ZM24.6214 36.617H29.1922V38.9906H23.6827V36.617H24.6214ZM32.1987 36.617V50.2125H30.8383V36.617H32.1987ZM39.395 36.617V38.9906H33.8311V36.617H39.395ZM42.3879 36.617V50.2125H41.0275V36.617H42.3879ZM10.4191 51.8979H42.3879V53.3024H10.4191V51.8979ZM18.9894 43.2041H13.4255V40.6619H18.9894V43.2041ZM13.4255 44.8754H18.9894V50.2125H13.4255V44.8754ZM29.1922 43.19H23.6827V40.6619H29.2466L29.1922 43.19ZM23.6827 44.8754H29.2466V50.2125H23.6827V44.8754ZM39.4494 43.19H33.8311V40.6619H39.395L39.4494 43.19ZM33.8311 44.8754H39.395V50.2125H33.8311V44.8754ZM11.793 50.2125H10.4327V36.617H11.793V50.2125ZM64.9973 30.6198H70.9285V39.0468H64.9973V30.6198ZM70.9285 40.6619V46.0973H64.9973V40.6619H70.9285ZM63.3648 46.0973H51.584V40.6619H63.3648V46.0973ZM49.9515 46.0973H44.0883V40.6619H50.0196L49.9515 46.0973ZM27.3829 34.1451V34.9316H25.4376V34.1451C25.5641 33.4695 25.898 32.8539 26.3899 32.3895C26.8945 32.8497 27.2426 33.4652 27.3829 34.1451ZM8.78662 46.1114H2.85539V40.6619H8.78662V46.1114ZM1.22294 46.1114H-10.5579V40.6619H1.22294V46.1114ZM-18.1216 40.6619H-12.1903V46.0973H-18.1216V40.6619ZM-18.1216 30.6058H-12.1903V39.0327H-18.1216V30.6058ZM2.85539 47.7968H8.78662V53.4147H2.85539V47.7968ZM47.7477 55.0158H70.8741V56.4203H47.7477V55.0158ZM64.6844 27.7125C64.7445 27.2241 64.9889 26.7799 65.3646 26.4766L67.8677 24.4541L70.5884 26.4906C70.9581 26.7911 71.1978 27.2304 71.255 27.7125C71.3101 28.1125 71.2583 28.5205 71.1053 28.8923H64.834C64.681 28.5205 64.6293 28.1125 64.6844 27.7125ZM63.324 36.617V38.9906H51.584V36.617H63.324ZM43.7074 27.7125C43.7724 27.2224 44.0216 26.7784 44.4012 26.4766L46.8907 24.4541L49.6114 26.4906C49.9772 26.7926 50.2121 27.232 50.2644 27.7125C50.3238 28.1113 50.2767 28.5191 50.1284 28.8923H43.8707C43.7131 28.5218 43.6566 28.1138 43.7074 27.7125ZM44.0883 30.6198H50.0196V39.0468H44.0883V36.617H44.51C44.7265 36.617 44.9341 36.5282 45.0872 36.3702C45.2403 36.2122 45.3263 35.9978 45.3263 35.7743V32.7266C45.3263 32.5031 45.2403 32.2887 45.0872 32.1307C44.9341 31.9727 44.7265 31.8839 44.51 31.8839H44.0883V30.6198ZM31.2464 21.5328C31.0299 21.5328 30.8223 21.6216 30.6692 21.7796C30.5162 21.9376 30.4302 22.152 30.4302 22.3755V24.3137H27.2197V22.4036C27.2197 22.1801 27.1337 21.9657 26.9806 21.8077C26.8275 21.6497 26.6199 21.5609 26.4035 21.5609C26.187 21.5609 25.9794 21.6497 25.8263 21.8077C25.6732 21.9657 25.5872 22.1801 25.5872 22.4036V24.3418H22.4448V22.4036C22.4448 22.1801 22.3588 21.9657 22.2057 21.8077C22.0526 21.6497 21.845 21.5609 21.6286 21.5609C21.4121 21.5609 21.2045 21.6497 21.0514 21.8077C20.8983 21.9657 20.8123 22.1801 20.8123 22.4036V24.3418H18.0916C18.0981 24.2623 18.0981 24.1825 18.0916 24.103V19.9738H34.7017V24.0749C34.6952 24.1544 34.6952 24.2342 34.7017 24.3137H31.981V22.4036C31.9846 22.2917 31.9666 22.1803 31.9281 22.0757C31.8896 21.9711 31.8312 21.8755 31.7565 21.7945C31.6818 21.7134 31.5922 21.6485 31.4929 21.6036C31.3937 21.5587 31.2867 21.5346 31.1784 21.5328H31.2464ZM28.1992 6.58902L34.5657 10.6059C35.1968 11.0101 35.7352 11.551 36.1439 12.1912C36.5526 12.8314 36.8218 13.5556 36.9328 14.3137C37.0338 15.0121 36.9967 15.7244 36.8237 16.4075C36.6507 17.0907 36.3453 17.7305 35.9261 18.2884H29.1242V16.5328C29.1178 16.1523 29.0441 15.7763 28.9066 15.4233C28.5177 14.4334 27.792 13.6243 26.866 13.148C26.6389 13.0542 26.3856 13.0542 26.1586 13.148C25.2143 13.6049 24.4609 14.3977 24.0364 15.3811C23.882 15.7643 23.7989 16.1741 23.7915 16.589V18.3446H16.8808C16.464 17.7856 16.1611 17.1453 15.9904 16.4622C15.8197 15.779 15.7848 15.0673 15.8878 14.3699C15.9988 13.6118 16.2679 12.8876 16.6766 12.2474C17.0853 11.6072 17.6238 11.0663 18.2548 10.662L24.5534 6.6452L28.1992 6.58902ZM25.4784 16.5328C25.4758 16.341 25.5081 16.1505 25.5736 15.971C25.7537 15.5332 26.057 15.1613 26.4443 14.9036C26.8243 15.1697 27.1256 15.5391 27.3149 15.971C27.3752 16.1519 27.4073 16.3415 27.4101 16.5328V18.2884H25.4376L25.4784 16.5328ZM26.5803 0.71825C26.7023 0.716356 26.8234 0.739766 26.9365 0.787091C27.0495 0.834417 27.1522 0.904694 27.2385 0.99376C27.3248 1.08282 27.3928 1.18886 27.4387 1.30559C27.4845 1.42232 27.5072 1.54736 27.5054 1.67331V4.90363H25.3424V1.67331C25.3405 1.54736 25.3632 1.42232 25.409 1.30559C25.4549 1.18886 25.523 1.08282 25.6092 0.99376C25.6955 0.904694 25.7982 0.834417 25.9113 0.787091C26.0243 0.739766 26.1454 0.716356 26.2674 0.71825H26.5803ZM15.8878 27.1367C15.8878 26.835 16.0039 26.5456 16.2105 26.3323C16.4172 26.1189 16.6974 25.9991 16.9897 25.9991H35.8172C36.1108 25.9991 36.3924 26.1185 36.6013 26.3314C36.8101 26.5444 36.9292 26.8337 36.9328 27.1367V28.3867H15.8878V27.1367ZM16.0918 30.0721H36.7151L39.2318 31.8839H28.1175C27.7546 31.4102 27.3493 30.9728 26.9068 30.5777C26.761 30.4545 26.5783 30.3872 26.3899 30.3872C26.2014 30.3872 26.0188 30.4545 25.8729 30.5777C25.4327 30.9708 25.0316 31.4083 24.6758 31.8839H13.5751L16.0918 30.0721ZM8.37851 31.8839C8.16203 31.8839 7.95443 31.9727 7.80135 32.1307C7.64828 32.2887 7.56229 32.5031 7.56229 32.7266V35.7743C7.56229 35.9978 7.64828 36.2122 7.80135 36.3702C7.95443 36.5282 8.16203 36.617 8.37851 36.617H8.78662V38.9906H2.85539V30.5637H8.78662V31.8277L8.37851 31.8839ZM2.55611 27.6704C2.58293 27.4277 2.65701 27.1931 2.7739 26.9807C2.89079 26.7683 3.04807 26.5825 3.2363 26.4345L5.72578 24.412L8.44653 26.4485C8.81232 26.7505 9.04715 27.1899 9.09951 27.6704C9.16551 28.069 9.11826 28.4788 8.96347 28.8502H2.70575C2.55412 28.4928 2.50229 28.0987 2.55611 27.7125V27.6704ZM1.19574 36.5749V38.9485H-10.5579V36.617L1.19574 36.5749ZM-18.4209 27.7125C-18.394 27.4698 -18.32 27.2352 -18.2031 27.0228C-18.0862 26.8104 -17.9289 26.6246 -17.7407 26.4766L-15.2512 24.4541L-12.5304 26.4906C-12.1646 26.7926 -11.9298 27.232 -11.8775 27.7125C-11.8115 28.1111 -11.8587 28.5209 -12.0135 28.8923H-18.2712C-18.4306 28.5223 -18.4826 28.1125 -18.4209 27.7125ZM-18.108 55.0158H4.88235V56.4203H-18.108V55.0158ZM6.5148 56.4203V55.1001H46.1697V56.4203H6.5148Z" fill="#4D2C19" stroke="white" stroke-width="0.4" mask="url(#path-1-inside-1_4_2629)"/>
</g>
<defs>
<clipPath id="clip0_4_2629">
<rect width="53" height="58" fill="white"/>
</clipPath>
</defs>
</svg>
