<svg width="13" height="22" viewBox="0 0 13 22" fill="none" xmlns="http://www.w3.org/2000/svg">
<path opacity="0.5" d="M6.34365 6.48585L5.81199 6.67257L3.48712 0.917897L3.75943 0.822669C3.98467 0.742297 4.22345 0.707538 4.46205 0.720375C4.70065 0.733211 4.93439 0.793393 5.14986 0.897475C5.36533 1.00156 5.5583 1.14748 5.7177 1.32689C5.8771 1.5063 5.9998 1.71567 6.07875 1.94298L7.10688 4.87632C7.21669 5.1918 7.19804 5.53828 7.055 5.83993C6.91196 6.14158 6.65618 6.37384 6.34365 6.48585Z" fill="#FF9C4F"/>
<path opacity="0.5" d="M10.8694 19.9893L10.3396 20.176L8.01474 14.4195L8.28705 14.3224C8.51231 14.2423 8.75103 14.2077 8.98956 14.2207C9.22808 14.2336 9.46174 14.2938 9.67715 14.3979C9.89256 14.5019 10.0855 14.6478 10.2449 14.8271C10.4044 15.0063 10.5272 15.2155 10.6064 15.4427L11.6382 18.3779C11.6927 18.5346 11.7161 18.7006 11.707 18.8664C11.6978 19.0322 11.6564 19.1945 11.585 19.3441C11.5136 19.4938 11.4137 19.6278 11.2909 19.7385C11.1681 19.8492 11.0249 19.9344 10.8694 19.9893Z" fill="#FF9C4F"/>
<path d="M5.25842 5.75584L4.72675 5.94256C4.27189 6.10412 3.89928 6.44112 3.69086 6.87948C3.48243 7.31785 3.45524 7.82171 3.61526 8.28028L5.07502 12.446C5.15438 12.6732 5.27738 12.8824 5.437 13.0617C5.59662 13.241 5.78973 13.3869 6.00529 13.4909C6.22085 13.5949 6.45464 13.6552 6.6933 13.6681C6.93196 13.681 7.17079 13.6464 7.39618 13.5663L7.93897 13.3796C8.09271 13.3248 8.25564 13.3012 8.41846 13.3099C8.58128 13.3187 8.7408 13.3597 8.88788 13.4306C9.03497 13.5015 9.16675 13.601 9.2757 13.7233C9.38465 13.8455 9.46863 13.9882 9.52284 14.1432L10.8492 17.928C10.9035 18.0824 10.9271 18.246 10.9186 18.4095C10.91 18.573 10.8696 18.7333 10.7996 18.881C10.7296 19.0288 10.6313 19.1612 10.5104 19.2706C10.3896 19.3801 10.2485 19.4644 10.0953 19.5189L8.28168 20.1649C7.97092 20.2769 7.63574 20.3013 7.31224 20.2355C6.98874 20.1697 6.68919 20.0162 6.44585 19.7915C4.04845 17.5637 2.22759 14.7791 1.14179 11.6801C0.0559854 8.58101 -0.261844 5.26142 0.215952 2.01026C0.264927 1.68144 0.401867 1.37228 0.612059 1.11601C0.822251 0.859737 1.09775 0.666056 1.40895 0.555739L2.67419 0.103872C3.12915 -0.0574152 3.62904 -0.0300117 4.06395 0.180068C4.49887 0.390148 4.83322 0.76571 4.99351 1.22418L6.02164 4.15752C6.12755 4.4716 6.10692 4.81503 5.96419 5.11393C5.82146 5.41283 5.56802 5.64334 5.25842 5.75584Z" fill="white"/>
<path d="M6.34365 6.48585L5.81199 6.67257L3.48712 0.917897L3.75943 0.822669C3.98467 0.742297 4.22345 0.707538 4.46205 0.720375C4.70065 0.733211 4.93439 0.793393 5.14986 0.897475C5.36533 1.00156 5.5583 1.14748 5.7177 1.32689C5.8771 1.5063 5.9998 1.71567 6.07875 1.94298L7.10688 4.87632C7.21669 5.1918 7.19804 5.53828 7.055 5.83993C6.91196 6.14158 6.65618 6.37384 6.34365 6.48585Z" stroke="#4D2C19" stroke-width="0.933595" stroke-miterlimit="10"/>
<path d="M11.184 20.2454L9.37045 20.8914C9.06001 21.0035 8.72509 21.0279 8.40187 20.9621C8.07866 20.8963 7.77942 20.7427 7.53648 20.518C5.13705 18.2917 3.31468 15.5074 2.22843 12.4079C1.14217 9.30848 0.825045 5.98817 1.30473 2.73678C1.35331 2.40782 1.4901 2.09848 1.70035 1.84214C1.91059 1.5858 2.18631 1.3922 2.49773 1.28224L3.49066 0.92749L5.81367 6.68588C5.58815 6.76546 5.38044 6.88913 5.20244 7.04979C5.02444 7.21046 4.87966 7.40496 4.7764 7.62214C4.67313 7.83932 4.61343 8.07491 4.60069 8.31541C4.58796 8.5559 4.62244 8.79657 4.70218 9.0236L6.16194 13.1893C6.24089 13.4166 6.36359 13.626 6.52299 13.8054C6.68239 13.9848 6.87536 14.1307 7.09083 14.2348C7.3063 14.3389 7.54005 14.3991 7.77865 14.4119C8.01725 14.4247 8.25602 14.39 8.48126 14.3096L9.02403 14.1229C9.1779 14.0682 9.34095 14.0446 9.50386 14.0535C9.66676 14.0624 9.82633 14.1036 9.97343 14.1747C10.1205 14.2458 10.2523 14.3454 10.3612 14.4679C10.47 14.5904 10.5539 14.7333 10.6079 14.8884L11.9343 18.6713C12.0385 18.9805 12.0183 19.3185 11.878 19.6128C11.7378 19.9071 11.4886 20.1342 11.184 20.2454Z" stroke="#4D2C19" stroke-width="0.933595" stroke-miterlimit="10"/>
<path d="M8.19754 14.6211L10.6187 20.4411" stroke="#4D2C19" stroke-width="0.933595" stroke-miterlimit="10"/>
</svg>
