<svg width="65" height="54" viewBox="0 0 65 54" fill="none" xmlns="http://www.w3.org/2000/svg">
<path d="M11.9678 35.0386C12.2068 35.0386 12.4385 35.1228 12.6221 35.2759C15.5152 37.6885 17.0986 40.881 17.0986 44.2651V52.7642C17.0985 53.0348 16.9911 53.2943 16.7998 53.4858C16.6082 53.6774 16.3481 53.7856 16.0771 53.7856H7.85742C7.58638 53.7856 7.32642 53.6775 7.13477 53.4858C6.94333 53.2943 6.83509 53.0349 6.83496 52.7642V44.2651C6.83496 40.881 8.41954 37.6885 11.3135 35.2759C11.4971 35.1229 11.7288 35.0386 11.9678 35.0386ZM11.8154 37.5806C9.91972 39.4739 8.87891 41.8128 8.87891 44.2651V51.7417H15.0547V44.2651C15.0547 41.8128 14.0148 39.474 12.1182 37.5806L11.9668 37.4292L11.8154 37.5806Z" fill="#4D2C19" stroke="white" stroke-width="0.428571"/>
<path d="M19.9199 25.9492H44.3652C44.6362 25.9493 44.8963 26.0574 45.0879 26.249C45.2794 26.4406 45.3867 26.7007 45.3867 26.9717V52.7637C45.3867 53.0346 45.2794 53.2947 45.0879 53.4863C44.8963 53.6779 44.6362 53.7861 44.3652 53.7861H19.9199C19.6489 53.7861 19.3889 53.678 19.1973 53.4863C19.0056 53.2947 18.8975 53.0347 18.8975 52.7637V26.9717C18.8975 26.7007 19.0056 26.4407 19.1973 26.249C19.3889 26.0574 19.6489 25.9492 19.9199 25.9492ZM20.9414 51.7422H43.3428V27.9932H20.9414V51.7422Z" fill="#4D2C19" stroke="white" stroke-width="0.428571"/>
<path d="M4.01758 29.877H19.9199C20.1908 29.8771 20.451 29.9852 20.6426 30.1768C20.8341 30.3684 20.9414 30.6285 20.9414 30.8994V52.7637C20.9414 53.0346 20.8341 53.2947 20.6426 53.4863C20.451 53.6779 20.1908 53.786 19.9199 53.7861H4.01758C3.74655 53.7861 3.48657 53.678 3.29492 53.4863C3.10327 53.2947 2.99512 53.0347 2.99512 52.7637V30.8994C2.99512 30.6284 3.10327 30.3684 3.29492 30.1768C3.48657 29.9851 3.74653 29.877 4.01758 29.877ZM5.03906 51.7422H18.8975V31.9209H5.03906V51.7422Z" fill="#4D2C19" stroke="white" stroke-width="0.428571"/>
<path d="M32.1406 31.1377C32.359 31.1377 32.5714 31.2083 32.7471 31.3379C34.6938 32.7747 36.2136 34.4495 37.2695 36.3154C38.344 38.2166 38.8867 40.2218 38.8867 42.2793V52.7637C38.8867 53.0346 38.7794 53.2947 38.5879 53.4863C38.3963 53.6779 38.1362 53.7861 37.8652 53.7861H26.416C26.145 53.7861 25.885 53.678 25.6934 53.4863C25.5018 53.2947 25.3936 53.0346 25.3936 52.7637V42.2793C25.3936 40.2217 25.9372 38.2158 27.0117 36.3154C28.0676 34.4495 29.5875 32.7747 31.5342 31.3379C31.7099 31.2083 31.9223 31.1377 32.1406 31.1377ZM32.0039 33.5625C29.0638 35.9944 27.4375 39.0593 27.4375 42.2793V51.7422H36.8428V42.2793C36.8428 39.0593 35.2174 35.9944 32.2773 33.5625L32.1406 33.4502L32.0039 33.5625Z" fill="#4D2C19" stroke="white" stroke-width="0.428571"/>
<path d="M4.01758 19.498H19.9199C20.1908 19.4982 20.451 19.6063 20.6426 19.7979C20.8341 19.9895 20.9414 20.2496 20.9414 20.5205V25.7744C20.9413 26.0451 20.8338 26.3046 20.6426 26.4961C20.451 26.6876 20.1908 26.7958 19.9199 26.7959H4.01758C3.74653 26.7959 3.48657 26.6877 3.29492 26.4961C3.10349 26.3046 2.99523 26.0452 2.99512 25.7744V20.5205C2.99512 20.2495 3.10327 19.9895 3.29492 19.7979C3.48657 19.6062 3.74653 19.498 4.01758 19.498ZM5.03906 24.752H18.8975V21.542H5.03906V24.752Z" fill="#4D2C19" stroke="white" stroke-width="0.428571"/>
<path d="M19.9121 4.66699H26.4111C26.6821 4.66708 26.9422 4.77523 27.1338 4.9668C27.3253 5.15842 27.4326 5.41854 27.4326 5.68945V20.5234C27.4325 20.7944 27.3254 21.0545 27.1338 21.2461C26.9422 21.4377 26.6821 21.5448 26.4111 21.5449H19.9121C19.6412 21.5449 19.3811 21.4376 19.1895 21.2461C18.9979 21.0545 18.8897 20.7944 18.8896 20.5234V5.68945C18.8896 5.41844 18.9978 5.15844 19.1895 4.9668C19.3811 4.77516 19.6411 4.66699 19.9121 4.66699ZM20.9336 19.501H25.3887V6.71094H20.9336V19.501Z" fill="#4D2C19" stroke="white" stroke-width="0.428571"/>
<path d="M23.1621 0.213867C24.4364 0.213954 25.4961 0.755294 26.2422 1.70215C26.9915 2.65325 27.4326 4.02595 27.4326 5.69238C27.4326 5.96331 27.3253 6.22342 27.1338 6.41504C26.9422 6.6066 26.6821 6.71476 26.4111 6.71484C26.1402 6.71484 25.8801 6.60659 25.6885 6.41504C25.4968 6.2234 25.3887 5.9634 25.3887 5.69238C25.3887 5.41496 25.3643 4.58034 25.0879 3.80762C24.9493 3.42025 24.7427 3.03421 24.4307 2.74316C24.1137 2.44764 23.6966 2.25788 23.1621 2.25781C22.6274 2.25781 22.2096 2.44735 21.8926 2.74316C21.5805 3.03443 21.374 3.42103 21.2354 3.80859C20.9588 4.58168 20.9336 5.4164 20.9336 5.69238C20.9336 5.96336 20.8264 6.22341 20.6348 6.41504C20.4431 6.60666 20.1831 6.71482 19.9121 6.71484C19.6411 6.71484 19.3811 6.60667 19.1895 6.41504C18.9978 6.2234 18.8896 5.9634 18.8896 5.69238C18.8897 4.02596 19.3315 2.65325 20.0811 1.70215C20.8274 0.755205 21.8877 0.213867 23.1621 0.213867Z" fill="#4D2C19" stroke="white" stroke-width="0.428571"/>
<path d="M37.8691 4.66699H44.3672C44.6382 4.66702 44.8982 4.77519 45.0898 4.9668C45.2814 5.15843 45.3887 5.41849 45.3887 5.68945V20.5234C45.3886 20.7944 45.2814 21.0545 45.0898 21.2461C44.8982 21.4376 44.6381 21.5449 44.3672 21.5449H37.8691C37.5982 21.5449 37.3381 21.4376 37.1465 21.2461C36.9549 21.0545 36.8468 20.7944 36.8467 20.5234V5.68945C36.8467 5.41844 36.9548 5.15844 37.1465 4.9668C37.3381 4.77516 37.5981 4.66699 37.8691 4.66699ZM38.8906 19.501H43.3447V6.71094H38.8906V19.501Z" fill="#4D2C19" stroke="white" stroke-width="0.428571"/>
<path d="M41.1191 0.213867C42.3938 0.213953 43.4523 0.755382 44.1973 1.70215C44.9456 2.65322 45.3857 4.02581 45.3857 5.69238C45.3857 5.96332 45.2785 6.22342 45.0869 6.41504C44.8953 6.60661 44.6352 6.71477 44.3643 6.71484C44.0933 6.71484 43.8332 6.60661 43.6416 6.41504C43.4499 6.2234 43.3418 5.9634 43.3418 5.69238C43.3418 5.41501 43.3178 4.58031 43.042 3.80762C42.9037 3.42022 42.6973 3.03425 42.3857 2.74316C42.0693 2.44759 41.6529 2.25788 41.1191 2.25781C40.5852 2.25781 40.1684 2.44749 39.8516 2.74316C39.5395 3.03444 39.3322 3.42096 39.1934 3.80859C38.9164 4.5816 38.8906 5.41618 38.8906 5.69238C38.8906 5.96336 38.7834 6.22341 38.5918 6.41504C38.4002 6.60666 38.1402 6.71482 37.8691 6.71484C37.5981 6.71484 37.3381 6.60667 37.1465 6.41504C36.9548 6.2234 36.8467 5.9634 36.8467 5.69238C36.8467 4.0259 37.2886 2.65325 38.0381 1.70215C38.7843 0.755266 39.8443 0.213867 41.1191 0.213867Z" fill="#4D2C19" stroke="white" stroke-width="0.428571"/>
<path d="M19.9199 19.501H44.3652C44.6362 19.501 44.8963 19.6092 45.0879 19.8008C45.2795 19.9924 45.3867 20.2525 45.3867 20.5234C45.3867 20.7944 45.2795 21.0545 45.0879 21.2461C44.8963 21.4377 44.6362 21.5449 44.3652 21.5449H19.9199C19.649 21.5449 19.3889 21.4376 19.1973 21.2461C19.0057 21.0545 18.8975 20.7944 18.8975 20.5234C18.8975 20.2524 19.0056 19.9924 19.1973 19.8008C19.3889 19.6091 19.6489 19.501 19.9199 19.501Z" fill="#4D2C19" stroke="white" stroke-width="0.428571"/>
<path d="M26.0293 19.501C26.3003 19.501 26.5603 19.6092 26.752 19.8008C26.9435 19.9924 27.0508 20.2525 27.0508 20.5234V26.9717C27.0507 27.2426 26.9435 27.5028 26.752 27.6943C26.5603 27.8859 26.3002 27.9931 26.0293 27.9932C25.7584 27.9932 25.4983 27.8858 25.3066 27.6943C25.1151 27.5028 25.0069 27.2426 25.0068 26.9717V20.5234C25.0068 20.2524 25.115 19.9924 25.3066 19.8008C25.4983 19.6091 25.7583 19.501 26.0293 19.501Z" fill="#4D2C19" stroke="white" stroke-width="0.428571"/>
<path d="M32.1426 19.501C32.4136 19.501 32.6736 19.6092 32.8652 19.8008C33.0568 19.9924 33.1641 20.2525 33.1641 20.5234V26.9717C33.164 27.2426 33.0568 27.5028 32.8652 27.6943C32.6736 27.8859 32.4135 27.9931 32.1426 27.9932C31.8716 27.9932 31.6116 27.8858 31.4199 27.6943C31.2283 27.5028 31.1202 27.2426 31.1201 26.9717V20.5234C31.1201 20.2524 31.2283 19.9924 31.4199 19.8008C31.6116 19.6091 31.8715 19.501 32.1426 19.501Z" fill="#4D2C19" stroke="white" stroke-width="0.428571"/>
<path d="M38.252 19.501C38.523 19.501 38.783 19.6092 38.9746 19.8008C39.1662 19.9924 39.2734 20.2525 39.2734 20.5234V26.9717C39.2734 27.2426 39.1662 27.5028 38.9746 27.6943C38.783 27.8859 38.5229 27.9931 38.252 27.9932C37.981 27.9932 37.7209 27.8858 37.5293 27.6943C37.3377 27.5028 37.2296 27.2426 37.2295 26.9717V20.5234C37.2295 20.2524 37.3376 19.9924 37.5293 19.8008C37.721 19.6091 37.9809 19.501 38.252 19.501Z" fill="#4D2C19" stroke="white" stroke-width="0.428571"/>
<path d="M1.23633 24.7516H19.9199C20.1909 24.7516 20.4509 24.8598 20.6426 25.0514C20.8342 25.243 20.9424 25.503 20.9424 25.7741V30.8991C20.9424 31.1701 20.8342 31.4301 20.6426 31.6217C20.4509 31.8133 20.1909 31.9215 19.9199 31.9215H4.01855C3.83443 31.9215 3.65331 31.8712 3.49512 31.777C3.33707 31.6828 3.20678 31.5481 3.11914 31.3864V31.3854L0.337891 26.2614C0.253434 26.1057 0.211318 25.9306 0.214844 25.7535C0.218382 25.5765 0.267779 25.4028 0.358398 25.2506C0.449003 25.0986 0.577589 24.9728 0.731445 24.8854C0.885351 24.798 1.05932 24.7516 1.23633 24.7516ZM3.12402 27.1119L4.5625 29.7653L4.62305 29.8776H18.8984V26.7955H2.95312L3.12402 27.1119Z" fill="#4D2C19" stroke="white" stroke-width="0.428571"/>
<path d="M52.3184 35.0386C52.5574 35.0386 52.789 35.1228 52.9727 35.2759C55.8659 37.6885 57.4502 40.881 57.4502 44.2651V52.7642C57.4501 53.0348 57.3427 53.2943 57.1514 53.4858C56.9598 53.6774 56.6996 53.7856 56.4287 53.7856H48.209C47.9379 53.7856 47.678 53.6775 47.4863 53.4858C47.2949 53.2943 47.1867 53.0349 47.1865 52.7642V44.2651C47.1865 40.881 48.7702 37.6884 51.6641 35.2759C51.8477 35.1228 52.0793 35.0386 52.3184 35.0386ZM52.167 37.5806C50.2705 39.4739 49.2305 41.8129 49.2305 44.2651V51.7417H55.4062V44.2651C55.4062 41.8127 54.3656 39.4739 52.4697 37.5806L52.3184 37.4292L52.167 37.5806Z" fill="#4D2C19" stroke="white" stroke-width="0.428571"/>
<path d="M44.3652 29.877H60.2676C60.5385 29.8771 60.7987 29.9852 60.9902 30.1768C61.1817 30.3684 61.2891 30.6285 61.2891 30.8994V52.7637C61.2891 53.0346 61.1817 53.2947 60.9902 53.4863C60.7987 53.6779 60.5385 53.786 60.2676 53.7861H44.3652C44.0942 53.7861 43.8342 53.678 43.6426 53.4863C43.4509 53.2947 43.3428 53.0347 43.3428 52.7637V30.8994C43.3428 30.6284 43.4509 30.3684 43.6426 30.1768C43.8342 29.9851 44.0942 29.877 44.3652 29.877ZM45.3867 32.1357L45.3838 51.5273V51.7422H59.2451V31.9209H45.3867V32.1357Z" fill="#4D2C19" stroke="white" stroke-width="0.428571"/>
<path d="M44.3652 19.498H60.2676C60.5385 19.4982 60.7987 19.6063 60.9902 19.7979C61.1817 19.9895 61.2891 20.2496 61.2891 20.5205V25.7744C61.289 26.0451 61.1815 26.3046 60.9902 26.4961C60.7987 26.6876 60.5385 26.7958 60.2676 26.7959H44.3652C44.0942 26.7959 43.8342 26.6877 43.6426 26.4961C43.4511 26.3046 43.3429 26.0452 43.3428 25.7744V20.5205C43.3428 20.2495 43.4509 19.9895 43.6426 19.7979C43.8342 19.6062 44.0942 19.498 44.3652 19.498ZM45.3867 21.7559L45.3838 24.5381V24.752H59.2451V21.542H45.3877L45.3867 21.7559Z" fill="#4D2C19" stroke="white" stroke-width="0.428571"/>
<path d="M44.3652 24.7515H63.0488C63.2258 24.7514 63.3998 24.7979 63.5537 24.8853C63.7077 24.9727 63.8371 25.0984 63.9277 25.2505C64.0184 25.4027 64.0677 25.5763 64.0713 25.7534C64.0748 25.9305 64.0317 26.1056 63.9473 26.2612L61.166 31.3853V31.3862C61.0783 31.548 60.9481 31.6827 60.79 31.7769C60.632 31.871 60.4515 31.9213 60.2676 31.9214H44.3652C44.0942 31.9214 43.8342 31.8132 43.6426 31.6216C43.451 31.4299 43.3428 31.1699 43.3428 30.8989V25.7739C43.3428 25.5029 43.4509 25.2429 43.6426 25.0513C43.8342 24.8596 44.0942 24.7515 44.3652 24.7515ZM45.3867 27.0093L45.3838 29.6626V29.8774H59.6621L59.7227 29.7651L61.1611 27.1118L61.332 26.7954H45.3877L45.3867 27.0093Z" fill="#4D2C19" stroke="white" stroke-width="0.428571"/>
<path d="M26.416 7.25439H37.8652C38.1362 7.25443 38.3963 7.36259 38.5879 7.5542C38.7795 7.74583 38.8867 8.0059 38.8867 8.27686V13.144C38.8867 13.415 38.7795 13.6751 38.5879 13.8667C38.3963 14.0583 38.1362 14.1655 37.8652 14.1655H26.416C26.145 14.1655 25.885 14.0583 25.6934 13.8667C25.5017 13.6751 25.3936 13.4151 25.3936 13.144V8.27686C25.3936 8.00585 25.5017 7.74584 25.6934 7.5542C25.885 7.36256 26.145 7.25439 26.416 7.25439ZM27.4375 12.1226H36.8428V9.29834H27.4375V12.1226Z" fill="#4D2C19" stroke="white" stroke-width="0.428571"/>
</svg>
