<svg width="56" height="46" viewBox="0 0 56 46" fill="none" xmlns="http://www.w3.org/2000/svg">
<g clip-path="url(#clip0_4_2689)">
<path d="M14.3901 2.61351V5.19183H15.2263H16.0626V8.81542V12.439H9.58191H3.10127V14.4599V16.4807H1.56821H0.0351562V30.8357V45.1906L7.53319 45.2046C11.6446 45.2046 19.282 45.2325 24.4944 45.2743C29.7067 45.3021 38.7518 45.2882 44.6053 45.2325L55.2252 45.1488V30.8078V16.4807H54.5283H53.8315V14.4599V12.439L46.7655 12.4111L39.6855 12.3693L39.6437 8.77361L39.6159 5.19183H40.243H40.8702V2.61351V0.0351906H27.6302H14.3901V2.61351ZM39.4765 2.61351V3.79815H27.6302H15.7838V2.61351V1.42888H27.6302H39.4765V2.61351ZM21.3307 7.58897L21.2889 10.0001H19.4074H17.5259L17.4841 7.58897L17.4562 5.19183H19.4074H21.3586L21.3307 7.58897ZM32.7868 7.63079V10.0697L27.7416 10.0419L22.6826 10.0001L22.6408 7.58897L22.6129 5.19183H27.6998H32.7868V7.63079ZM38.3337 7.58897L38.2919 10.0001L36.2431 10.0419L34.1805 10.0837V7.63079V5.19183H36.271H38.3615L38.3337 7.58897ZM38.2919 11.4495C38.3337 11.5192 38.3197 12.1185 38.2779 12.7735L38.1804 13.9721H27.9089H17.6374L17.5399 12.7735C17.4981 12.1185 17.4841 11.5192 17.5259 11.4495C17.5817 11.3798 21.7627 11.3241 27.9089 11.3241C34.055 11.3241 38.2361 11.3798 38.2919 11.4495ZM16.0626 15.1567V16.4807H10.2788H4.49495V15.1567V13.8327H10.2788H16.0626V15.1567ZM52.4378 15.1567V16.4807H46.0965H39.7552V15.1567V13.8327H46.0965H52.4378V15.1567ZM38.3615 15.9232V16.4807H36.1316H33.9017V17.3866V18.2925H27.6302H21.3586V17.3866V16.4807H19.4074H17.4562V15.9232V15.3657H27.9089H38.3615V15.9232ZM3.51937 19.6165V21.3725L2.44623 21.3307L1.35916 21.2889L1.31735 19.5747L1.27554 17.8744H2.40442H3.51937V19.6165ZM7.9513 19.5747L7.90949 21.2889H6.44612H4.98274L4.94093 19.5747L4.89912 17.8744H6.44612H7.99311L7.9513 19.5747ZM12.3693 19.6165V21.2889L10.878 21.3307L9.37286 21.3725V19.6165V17.8604L10.878 17.9023L12.3693 17.9441V19.6165ZM16.7594 19.6165V21.3725L15.2682 21.3307L13.763 21.2889L13.7212 19.5747L13.6793 17.8744H15.2263H16.7594V19.6165ZM19.937 19.5747L19.8952 21.2889L19.0311 21.3307L18.1531 21.3725V19.6165V17.8744H19.059H19.9788L19.937 19.5747ZM37.5253 19.6165V21.3725L36.4522 21.3307L35.3651 21.2889L35.3233 19.5747L35.2815 17.8744H36.4104H37.5253V19.6165ZM41.9573 19.5747L41.9154 21.2889L40.4242 21.3307L38.919 21.3725V19.6165V17.8744H40.4521H41.9991L41.9573 19.5747ZM46.3056 19.6165V21.3586H44.8422H43.3788V19.6165V17.8744H44.8422H46.3056V19.6165ZM50.7375 19.5747L50.6957 21.2889H49.2323H47.7689L47.7271 19.5747L47.6853 17.8744H49.2323H50.7793L50.7375 19.5747ZM53.943 19.5747L53.9011 21.2889L53.0371 21.3307L52.159 21.3725V19.6165V17.8744H53.0649H53.9848L53.943 19.5747ZM33.9017 31.7416V43.797H33.4836H33.0655V36.0202C33.0655 27.7278 33.0377 27.4211 32.3548 26.0832C31.9227 25.2191 30.9332 24.3132 29.8879 23.8254C29.0378 23.4213 28.8287 23.3794 27.6302 23.3794C26.4316 23.3794 26.2225 23.4213 25.3863 23.8254C24.2853 24.369 23.2958 25.3724 22.7801 26.4874L22.4038 27.2818L22.362 35.5324L22.3202 43.797H21.8464H21.3586V31.7416V19.6862H27.6302H33.9017V31.7416ZM19.937 33.2328L19.9649 43.797H10.6272H1.28947V33.3025C1.28947 27.5187 1.33128 22.7523 1.38703 22.7105C1.42884 22.6547 5.62384 22.6269 10.6829 22.6408L19.8952 22.6826L19.937 33.2328ZM53.943 33.2328L53.9708 43.797H44.6331H35.2954V33.3025C35.2954 27.5187 35.3372 22.7523 35.393 22.7105C35.4348 22.6547 39.6298 22.6269 44.6889 22.6408L53.9011 22.6826L53.943 33.2328ZM29.5953 25.2191C30.0134 25.456 30.5569 25.902 30.7938 26.2226C31.6718 27.3515 31.6718 27.4211 31.6718 36.0202V43.797H27.6998H23.7278V35.7415V27.6859L24.0902 26.9612C24.5083 26.1111 25.4699 25.2191 26.2783 24.9264C27.226 24.578 28.6894 24.7035 29.5953 25.2191Z" fill="#4D2C19"/>
<path d="M5.33203 27.6998V30.8356H6.02887H6.72572V27.6998V24.564H6.02887H5.33203V27.6998Z" fill="#4D2C19"/>
<path d="M9.92969 27.6998V30.8356H10.6265H11.3234V27.6998V24.564H10.6265H9.92969V27.6998Z" fill="#4D2C19"/>
<path d="M15.0859 27.6998V30.8356H15.7828H16.4796V27.6998V24.564H15.7828H15.0859V27.6998Z" fill="#4D2C19"/>
<path d="M39.3359 27.6998V30.8356H40.0328H40.7296V27.6998V24.564H40.0328H39.3359V27.6998Z" fill="#4D2C19"/>
<path d="M43.9375 27.6998V30.8356H44.6343H45.3312V27.6998V24.564H44.6343H43.9375V27.6998Z" fill="#4D2C19"/>
<path d="M49.0938 27.6993V30.8351H49.7906H50.4874V27.6993V24.5635H49.7906H49.0938V27.6993Z" fill="#4D2C19"/>
</g>
<defs>
<clipPath id="clip0_4_2689">
<rect width="55.19" height="45.26" fill="white"/>
</clipPath>
</defs>
</svg>
